<?xml version="1.0" encoding="UTF-8" standalone="no"?>
<!DOCTYPE svg PUBLIC "-//W3C//DTD SVG 1.1//EN" "http://www.w3.org/Graphics/SVG/1.1/DTD/svg11.dtd">
<svg xmlns:dc="http://purl.org/dc/elements/1.1/" xmlns="http://www.w3.org/2000/svg" version="1.1" xmlns:xl="http://www.w3.org/1999/xlink" viewBox="0 0 572.6 212.6" width="572.6" height="212.6">
  <defs/>
  <metadata> Produced by OmniGraffle 7.15.2 
    <dc:date>2020-05-23 12:14:22 +0000</dc:date>
  </metadata>
  <g id="Canvas_1" fill-opacity="1" stroke-dasharray="none" stroke-opacity="1" fill="none" stroke="none">
    <title>Canvas 1</title>
    <g id="Canvas_1: Layer 1">
      <title>Layer 1</title>
      <g id="Group_3">
        <title>Canvas_2: Layer 1</title>
        <g id="Group_48">
          <title>Graphic_2</title>
          <g id="Graphic_49">
            <path d="M 107.8257 134.4584 C 103.5307 133.2404 99.0897 131.9794 93.7677 131.9794 C 88.4457 131.9794 84.0047 133.2404 79.7097 134.4584 C 72.1107 136.6164 65.5507 138.4794 55.8337 132.3414 C 54.7397 131.6504 53.2917 131.9774 52.6017 133.0724 C 51.9107 134.1654 52.2377 135.6124 53.3317 136.3034 C 59.1747 139.9934 64.1737 141.2014 68.7217 141.2014 C 73.1117 141.2014 77.0817 140.0754 80.9887 138.9654 C 84.9747 137.8344 89.0967 136.6654 93.7677 136.6654 C 98.4367 136.6654 102.5597 137.8344 106.5437 138.9654 C 110.4507 140.0754 114.4207 141.2014 118.8137 141.2014 C 123.3607 141.2014 128.3587 139.9934 134.2017 136.3034 C 135.2957 135.6124 135.6217 134.1654 134.9317 133.0724 C 134.2407 131.9774 132.7927 131.6504 131.6997 132.3414 C 121.9847 138.4794 115.4217 136.6164 107.8257 134.4584 Z" fill="#c77481"/>
          </g>
        </g>
        <g id="Group_46">
          <title>Graphic_3</title>
          <g id="Graphic_47">
            <path d="M 72.3999 113.3954 C 72.6999 111.6494 74.5109 109.2184 77.2779 108.1534 C 78.2319 107.7874 79.2889 107.5944 80.3409 107.5944 C 82.4799 107.5944 84.1109 108.3614 84.7759 109.1194 C 85.1429 109.5384 85.1069 109.8204 85.0929 109.9274 C 84.9919 110.6784 84.5509 110.9684 81.8259 111.4424 C 80.8189 111.6174 79.7799 111.7984 78.8219 112.1674 C 77.8639 112.5344 76.9699 113.0964 76.1069 113.6424 C 75.1079 114.2704 73.9759 114.9824 73.2819 114.9824 C 73.1809 114.9824 72.9919 114.9824 72.6659 114.7044 C 72.3839 114.4644 72.2929 114.0224 72.3999 113.3954 M 69.6269 118.2724 C 70.7149 119.1974 71.9459 119.6664 73.2819 119.6664 L 73.2839 119.6664 C 75.3269 119.6664 77.0679 118.5724 78.6039 117.6064 C 79.3069 117.1624 79.9729 116.7444 80.5029 116.5414 C 81.0339 116.3364 81.8079 116.2014 82.6279 116.0594 C 85.0709 115.6344 89.1579 114.9234 89.7369 110.5414 C 89.9489 108.9334 89.4389 107.3324 88.2999 106.0304 C 86.5859 104.0754 83.6109 102.9094 80.3409 102.9094 C 78.6969 102.9094 77.1029 103.2024 75.5979 103.7814 C 71.6239 105.3094 68.4099 108.9384 67.7839 112.6064 C 67.3959 114.8784 68.0679 116.9434 69.6269 118.2724" fill="#c77481"/>
          </g>
        </g>
        <g id="Group_44">
          <title>Graphic_4</title>
          <g id="Graphic_45">
            <path d="M 102.6753 109.121 C 103.3423 108.361 104.9713 107.594 107.1123 107.594 C 108.1613 107.594 109.2213 107.788 110.1723 108.154 C 112.9393 109.219 114.7523 111.65 115.0513 113.397 C 115.1573 114.024 115.0703 114.465 114.7873 114.704 C 114.4593 114.982 114.2713 114.982 114.1703 114.982 C 113.4743 114.982 112.3433 114.27 111.3453 113.642 C 110.4813 113.098 109.5893 112.534 108.6303 112.167 C 107.6723 111.799 106.6333 111.619 105.6283 111.442 C 102.8993 110.969 102.4593 110.679 102.3583 109.927 C 102.3453 109.821 102.3073 109.54 102.6753 109.121 M 99.1523 106.031 C 98.0113 107.332 97.5023 108.933 97.7153 110.541 C 98.2943 114.924 102.3813 115.634 104.8253 116.059 C 105.6443 116.202 106.4183 116.336 106.9503 116.541 C 107.4803 116.744 108.1453 117.162 108.8483 117.606 C 110.3833 118.574 112.1243 119.667 114.1703 119.667 C 115.5083 119.667 116.7353 119.198 117.8243 118.272 C 119.3823 116.943 120.0583 114.88 119.6683 112.608 C 119.0433 108.938 115.8283 105.309 111.8543 103.781 C 110.3493 103.202 108.7533 102.909 107.1123 102.909 C 103.8433 102.909 100.8663 104.077 99.1523 106.031" fill="#c77481"/>
          </g>
        </g>
        <g id="Group_42">
          <title>Graphic_5</title>
          <g id="Graphic_43">
            <path d="M 178.0601 111.7299 C 176.0241 122.1659 172.7891 128.4319 170.3721 131.9009 C 170.0021 129.5889 169.3491 126.7199 168.1991 123.5709 C 165.6141 116.4879 159.9111 106.5729 147.4381 99.5809 C 144.2701 97.8049 141.7131 96.9409 139.6251 96.9409 C 137.3911 96.9409 135.6731 97.9429 134.7921 99.7619 C 134.1671 101.0439 134.0501 102.6269 134.3071 104.3659 C 125.9741 97.6319 116.5461 93.5529 105.5681 91.8299 C 104.2941 91.6289 103.0931 92.5029 102.8911 93.7809 C 102.6921 95.0599 103.5651 96.2589 104.8421 96.4589 C 118.9771 98.6779 130.3711 105.1649 140.1501 116.6729 C 140.3741 116.9759 140.5991 117.2719 140.8291 117.5639 C 153.0431 133.0779 157.9171 144.3229 156.1681 152.9589 C 154.5551 160.9059 147.2111 166.9219 136.4701 173.1499 C 136.0181 166.5669 133.5881 153.9809 121.9091 149.0499 C 120.8091 148.5879 119.9301 148.3719 119.1331 148.3719 C 117.5011 148.3719 116.6571 149.2759 116.3011 149.8169 C 114.8671 151.9909 116.2201 155.1509 118.6761 160.8919 C 121.2701 166.9589 124.8241 175.2679 123.4441 180.4929 C 122.9131 182.5119 117.7611 185.4739 113.2181 188.0859 C 107.4501 191.4019 100.7041 195.2909 96.0691 200.5329 L 96.0691 153.0259 C 96.0691 151.7329 95.0191 150.6829 93.7251 150.6829 C 92.4331 150.6829 91.3831 151.7329 91.3831 153.0259 L 91.3831 200.5959 C 86.6521 195.3119 79.6931 191.3999 73.7491 188.0679 C 69.0861 185.4569 63.8001 182.4949 63.2731 180.4939 C 61.8701 175.1759 65.4391 166.6079 68.0471 160.3509 C 70.4651 154.5479 71.6791 151.6369 70.3111 149.5849 C 69.7371 148.7199 68.7721 148.2239 67.6691 148.2239 C 66.8191 148.2239 65.8631 148.5099 64.6571 149.1209 C 56.7201 153.1549 51.6611 161.2079 49.6021 173.0669 C 39.0741 167.9009 33.5391 162.6039 31.7861 156.1029 C 29.6581 148.2139 32.9841 137.5789 41.9411 123.7129 C 52.8881 107.7569 65.8141 99.0959 82.6091 96.4589 C 83.8871 96.2589 84.7611 95.0599 84.5601 93.7809 C 84.3591 92.5029 83.1611 91.6289 81.8821 91.8299 C 70.4351 93.6269 60.6721 97.9869 52.0801 105.2479 C 52.5201 102.9709 52.3781 101.0249 51.6051 99.5249 C 50.6651 97.7039 48.8811 96.6599 46.7071 96.6599 C 42.0901 96.6599 35.9681 101.3489 30.3331 109.2039 C 26.6641 114.3159 21.6601 123.2839 18.1251 137.4189 C 14.1211 134.2299 6.9771 126.3159 8.2671 111.0749 C 9.3081 98.7779 19.9421 93.1679 29.3271 88.2189 C 32.3521 86.6239 35.2081 85.1179 37.6521 83.4549 C 42.8391 79.9189 45.6101 74.6789 44.3851 70.7079 C 43.6021 68.1639 41.2811 66.6439 38.1741 66.6439 C 36.3611 66.6439 34.2391 67.1399 31.8741 68.1199 C 26.7801 70.2309 20.7571 73.6049 15.9961 76.4559 C 27.1561 61.4299 43.1631 57.5809 55.1431 57.1209 C 73.2011 56.4309 88.3061 62.8669 91.3831 65.7129 L 91.3831 98.2109 C 91.3831 99.5049 92.4331 100.5539 93.7251 100.5539 C 95.0191 100.5539 96.0691 99.5049 96.0691 98.2109 L 96.0691 65.4579 C 103.8941 51.7349 115.8411 43.5339 128.1301 43.4949 L 128.2281 43.4949 C 141.4681 43.4949 154.6241 52.5509 166.7131 69.8329 C 162.8591 67.2399 158.3631 64.6869 153.8921 63.2199 C 151.5771 62.4619 149.4391 62.0769 147.5371 62.0769 C 142.5461 62.0769 140.1841 64.7319 139.6371 67.2159 C 138.6721 71.5979 142.2841 76.3889 148.8391 79.4209 C 149.5841 79.7639 150.3751 80.1229 151.2051 80.4999 C 163.2591 85.9659 181.4771 94.2249 178.0601 111.7299 M 33.5261 44.5249 C 45.6101 35.1279 60.8741 29.0569 72.4141 29.0569 C 77.6731 29.0569 81.6301 30.3509 83.8541 32.7969 C 85.6081 34.7249 86.3311 37.4499 86.0011 40.8969 C 85.2441 48.8599 85.9401 54.3099 87.1391 58.0279 C 79.2131 54.7029 67.1031 51.9759 54.9641 52.4399 C 42.1631 52.9289 25.1261 57.0039 12.9491 72.7209 C 16.8211 59.3299 26.9531 49.6389 33.5261 44.5249 M 102.1221 20.7109 C 104.8171 17.3439 109.7201 16.6359 113.3571 16.6359 C 125.1711 16.6359 144.3781 24.4809 158.2341 39.4759 C 164.7641 46.5449 172.1341 57.4449 173.4701 71.4939 C 156.2831 44.7269 139.6001 38.8079 128.2261 38.8079 L 128.1151 38.8079 C 118.7811 38.8399 109.6841 42.8989 102.0891 50.1069 C 102.5641 45.5119 102.3131 39.6949 100.6701 32.3849 C 99.5211 27.2789 100.0101 23.3509 102.1221 20.7109 M 173.7471 88.3209 C 167.4671 82.7279 159.1861 78.9729 153.1401 76.2329 C 152.3211 75.8619 151.5401 75.5079 150.8071 75.1689 C 145.4351 72.6849 143.9111 69.5889 144.2131 68.2229 C 144.4501 67.1459 146.0861 66.7619 147.5371 66.7619 C 148.9431 66.7619 150.5881 67.0669 152.4311 67.6729 C 162.8811 71.1019 174.1541 81.6159 174.2681 81.7229 C 174.9241 82.3379 175.8731 82.5239 176.7161 82.1989 C 177.5561 81.8759 178.1351 81.0989 178.2071 80.1999 C 179.7731 60.3969 170.0821 45.3949 161.6751 36.2949 C 148.4291 21.9609 128.5621 11.9509 113.3571 11.9509 C 106.6671 11.9509 101.5171 13.9679 98.4651 17.7839 C 95.4191 21.5899 94.6221 26.8499 96.1001 33.4119 C 99.8541 50.1219 95.7271 57.7429 93.5711 60.4099 C 92.0261 58.5679 89.4971 53.5979 90.6651 41.3409 C 91.1241 36.5259 89.9991 32.5889 87.3211 29.6459 C 84.1841 26.1949 79.0311 24.3719 72.4141 24.3719 C 59.8981 24.3719 43.5041 30.8319 30.6511 40.8269 C 15.2591 52.7989 6.7471 67.9839 6.6851 83.5889 C 6.6811 84.4539 7.1541 85.2499 7.9161 85.6599 C 8.6791 86.0699 9.6041 86.0259 10.3251 85.5469 C 10.4621 85.4569 24.0981 76.4119 33.6651 72.4489 C 35.9021 71.5219 37.3531 71.3279 38.1741 71.3279 C 39.6741 71.3279 39.8511 71.8989 39.9091 72.0869 C 40.3521 73.5299 38.9001 76.9369 35.0141 79.5829 C 32.7901 81.0979 30.0471 82.5439 27.1421 84.0749 C 17.2101 89.3119 4.8531 95.8299 3.5991 110.6799 C 2.5511 123.0439 6.6091 131.2259 10.1991 135.9109 C 14.1271 141.0379 18.4371 143.3909 19.1851 143.5309 C 19.3261 143.5579 19.4711 143.5699 19.6131 143.5699 C 21.5011 143.5699 21.8761 141.9199 22.1001 140.9329 C 25.4791 126.1259 30.5121 116.9899 34.1401 111.9349 C 40.1371 103.5749 44.8611 101.3449 46.7071 101.3449 C 47.2731 101.3449 47.3651 101.5269 47.4401 101.6709 C 48.0581 102.8689 47.7451 107.2139 42.1391 115.0889 C 29.1441 133.3469 24.4161 146.7669 27.2621 157.3209 C 30.2071 168.2439 41.1861 174.4469 50.4231 178.6329 C 50.7271 178.7699 51.0621 178.8419 51.3941 178.8419 C 53.4891 178.8419 53.7661 176.8719 53.9331 175.6939 C 55.4341 165.0369 59.3411 157.7419 65.5551 153.9779 C 65.0571 155.3499 64.3481 157.0509 63.7221 158.5489 C 60.8571 165.4229 56.9341 174.8379 58.7431 181.6909 C 59.7791 185.6119 64.9341 188.4999 71.4571 192.1549 C 79.2161 196.5019 88.8721 201.9139 91.5101 209.6009 C 91.8351 210.5469 92.7241 211.1819 93.7251 211.1819 C 94.7261 211.1819 95.6181 210.5469 95.9401 209.6009 C 98.5841 201.9019 107.9921 196.4949 115.5521 192.1469 C 121.9151 188.4879 126.9431 185.5969 127.9731 181.6909 C 129.7661 174.9079 126.0051 166.1159 122.9831 159.0499 C 122.2531 157.3459 121.3501 155.2289 120.8281 153.6999 C 132.7681 159.4459 131.8621 176.8049 131.8511 176.9799 C 131.7971 177.8339 132.2131 178.6479 132.9361 179.1049 C 133.6591 179.5629 134.5731 179.5919 135.3191 179.1779 C 149.0471 171.6119 158.6251 164.4149 160.7611 153.8899 C 162.8031 143.8049 157.6401 131.3409 144.5091 114.6649 C 139.8311 108.7229 138.2861 103.2909 139.0061 101.8089 C 139.0341 101.7499 139.0941 101.6259 139.6251 101.6259 C 140.3271 101.6259 141.9791 101.8919 145.1471 103.6669 C 154.0931 108.6839 160.3451 115.8579 163.7311 124.9959 C 166.2801 131.8749 166.1631 137.3579 166.1621 137.4089 C 166.1341 138.2939 166.6091 139.1179 167.3871 139.5419 C 168.1651 139.9639 169.1151 139.9099 169.8421 139.4039 C 170.2001 139.1549 178.6741 133.0509 182.6581 112.6279 C 184.4641 103.3729 181.4661 95.1959 173.7471 88.3209" fill="#c77481"/>
          </g>
        </g>
        <g id="Group_40">
          <title>Graphic_6</title>
          <g id="Graphic_41">
            <path d="M 130.8081 77.4618 C 129.8741 78.8788 126.7991 80.4058 122.2571 80.4058 C 122.1271 80.4058 121.9951 80.4048 121.8611 80.4028 C 112.9961 80.2388 109.3541 78.1448 108.2571 77.3158 C 109.2891 76.3208 113.8691 74.8138 120.8911 74.8138 C 127.1681 74.8138 130.5921 76.1088 131.0171 76.7778 C 131.1051 76.9848 130.8811 77.3538 130.8081 77.4618 M 120.8911 70.1288 C 118.5931 70.1288 106.9851 70.3678 104.0941 75.0818 C 103.2491 76.4508 103.2061 78.0298 103.9651 79.5248 C 104.0261 79.6468 104.1001 79.7628 104.1831 79.8718 C 104.5651 80.3788 108.3011 84.8368 121.7741 85.0868 C 121.9361 85.0898 122.0971 85.0908 122.2571 85.0908 C 127.8891 85.0908 132.6631 83.1568 134.7211 80.0438 C 135.7961 78.4128 136.0161 76.5508 135.3251 74.9358 C 133.5361 70.7528 125.5141 70.1288 120.8911 70.1288" fill="#c77481"/>
          </g>
        </g>
        <g id="Group_38">
          <title>Graphic_7</title>
          <g id="Graphic_39">
            <path d="M 65.6733 80.4032 C 65.5393 80.4042 65.4073 80.4062 65.2783 80.4062 L 65.2763 80.4062 C 60.7363 80.4062 57.6603 78.8792 56.7243 77.4622 C 56.6533 77.3542 56.4283 76.9852 56.5043 76.8032 C 56.9433 76.1092 60.3643 74.8142 66.6413 74.8142 C 73.6643 74.8142 78.2433 76.3212 79.2763 77.3162 C 78.1783 78.1452 74.5393 80.2392 65.6733 80.4032 M 66.6413 70.1292 C 62.0213 70.1292 53.9993 70.7532 52.2103 74.9362 C 51.5193 76.5502 51.7383 78.4122 52.8133 80.0422 C 54.8693 83.1562 59.6453 85.0912 65.2763 85.0912 L 65.2783 85.0912 C 65.4363 85.0912 65.5983 85.0902 65.7603 85.0872 C 79.2323 84.8372 82.9703 80.3792 83.3513 79.8722 C 83.4343 79.7622 83.5063 79.6462 83.5683 79.5242 C 84.3263 78.0292 84.2823 76.4512 83.4413 75.0822 C 80.5483 70.3672 68.9403 70.1292 66.6413 70.1292" fill="#c77481"/>
          </g>
        </g>
        <g id="Group_36">
          <title>Graphic_8</title>
          <g id="Graphic_37">
            <path d="M 474.1914 28.2182 C 474.8594 28.2152 475.5244 27.9692 476.0484 27.4752 C 477.1414 26.4462 477.1914 24.7222 476.1564 23.6322 C 474.7524 22.1442 474.2624 19.9862 474.8774 17.9952 C 475.4664 16.0802 476.9564 14.7332 478.9724 14.2922 L 483.8614 13.2112 L 484.0634 58.0302 C 484.0654 58.8532 484.4434 59.6272 485.0854 60.1432 C 485.5744 60.5342 486.1814 60.7392 486.7964 60.7362 C 486.9864 60.7362 487.1814 60.7142 487.3724 60.6742 L 513.4554 54.8902 C 514.9234 54.5642 515.8474 53.1122 515.5234 51.6472 C 515.1994 50.1792 513.7504 49.2562 512.2794 49.5792 L 489.4884 54.6302 L 489.4034 36.0072 L 507.6494 31.9612 C 509.1134 31.6352 510.0424 30.1812 509.7184 28.7152 C 509.3914 27.2492 507.9414 26.3232 506.4714 26.6502 L 489.3784 30.4382 L 489.2954 12.0092 L 512.8674 6.7952 C 514.3364 6.4692 515.2614 5.0182 514.9354 3.5502 C 514.6094 2.0852 513.1604 1.1602 511.6944 1.4822 L 486.0174 7.1632 C 486.0084 7.1652 485.9984 7.1662 485.9924 7.1682 L 477.8064 8.9782 C 473.8844 9.8352 470.8454 12.6072 469.6784 16.3902 C 468.4864 20.2512 469.4544 24.4572 472.2044 27.3672 C 472.7424 27.9362 473.4704 28.2212 474.1914 28.2182 Z" fill="#c77481"/>
          </g>
        </g>
        <g id="Group_34">
          <title>Graphic_9</title>
          <g id="Graphic_35">
            <path d="M 292.1992 118.7699 C 292.3912 118.7699 292.5852 118.7479 292.7782 118.7059 L 397.0352 95.6469 C 398.5002 95.3199 399.4272 93.8689 399.1032 92.4019 C 398.7792 90.9349 397.3262 90.0129 395.8602 90.3329 L 291.6002 113.3949 C 290.1342 113.7189 289.2112 115.1699 289.5352 116.6379 C 289.8162 117.9109 290.9462 118.7759 292.1992 118.7699 Z" fill="#c77481"/>
          </g>
        </g>
        <g id="Group_32">
          <title>Graphic_10</title>
          <g id="Graphic_33">
            <path d="M 560.1968 71.287 C 551.6808 61.998 538.5698 58.755 523.2718 62.152 L 447.4028 78.933 C 445.9368 79.257 445.0088 80.709 445.3328 82.177 C 445.6568 83.641 447.1078 84.569 448.5768 84.244 L 524.4498 67.462 C 541.5178 63.671 551.1298 69.451 556.1868 74.965 C 563.0448 82.445 565.5078 94.277 562.3148 104.405 C 560.7438 109.38 556.4428 118.101 545.2508 120.58 C 543.7838 120.904 542.8608 122.358 543.1848 123.825 C 543.4658 125.098 544.5988 125.961 545.8518 125.955 C 546.0428 125.954 546.2358 125.935 546.4278 125.891 C 556.5508 123.649 564.2318 116.414 567.5048 106.039 C 571.3198 93.934 568.4528 80.293 560.1968 71.287 Z" fill="#c77481"/>
          </g>
        </g>
        <g id="Group_30">
          <title>Graphic_11</title>
          <g id="Graphic_31">
            <path d="M 241.7598 90.7709 L 253.8418 88.0909 C 255.3088 87.7649 256.2328 86.3109 255.9068 84.8459 C 255.5828 83.3799 254.1288 82.4559 252.6638 82.7799 L 240.5938 85.4589 C 230.2518 87.7079 222.7438 93.9289 219.9998 102.5349 C 217.5848 110.1009 219.2828 118.5659 224.3238 124.0969 C 227.9918 128.1209 232.8908 130.2019 238.4448 130.1769 C 240.0988 130.1689 241.8118 129.9759 243.5678 129.5909 C 245.0378 129.2679 245.9638 127.8159 245.6428 126.3499 C 245.3188 124.8829 243.8698 123.9559 242.4028 124.2769 C 236.7308 125.5219 231.7418 124.1579 228.3448 120.4329 C 224.5888 116.3129 223.3498 109.9379 225.1828 104.1879 C 226.4388 100.2489 230.2618 93.2699 241.7598 90.7709 Z" fill="#c77481"/>
          </g>
        </g>
        <g id="Group_28">
          <title>Graphic_12</title>
          <g id="Graphic_29">
            <path d="M 305.9951 100.4481 C 316.2571 100.4021 327.2071 90.7181 327.1431 76.3761 L 327.0041 45.6251 C 326.9971 44.1231 325.7701 42.9111 324.2681 42.9181 C 322.7661 42.9251 321.5531 44.1481 321.5601 45.6501 L 321.6991 76.4011 C 321.7541 88.4941 312.6001 94.9751 305.9701 95.0061 C 304.1671 95.0141 301.5981 94.5701 299.5971 92.4121 C 297.7131 90.3801 296.7071 87.1861 296.6901 83.1731 L 296.5511 52.4271 C 296.5451 50.9251 295.3231 49.7121 293.8221 49.7191 C 292.3181 49.7261 291.1071 50.9491 291.1131 52.4511 L 291.2521 83.1961 C 291.2771 88.5961 292.7831 93.0621 295.6071 96.1111 C 298.2141 98.9251 301.9031 100.4661 305.9951 100.4481 Z" fill="#c77481"/>
          </g>
        </g>
        <g id="Group_26">
          <title>Graphic_13</title>
          <g id="Graphic_27">
            <path d="M 338.4219 92.869 C 338.8689 93.143 339.3609 93.27 339.8459 93.268 C 340.7599 93.264 341.6509 92.8 342.1619 91.963 C 344.5539 88.033 345.8109 83.361 345.7879 78.452 L 345.6539 48.893 L 375.5969 83.938 C 376.1279 84.557 376.8929 84.894 377.6779 84.891 C 377.9899 84.89 378.3069 84.834 378.6119 84.72 C 379.6809 84.323 380.3889 83.3 380.3849 82.158 L 380.1669 33.811 C 380.1589 32.308 378.9379 31.096 377.4349 31.103 C 375.9329 31.11 374.7189 32.333 374.7259 33.836 L 374.9109 74.763 L 344.9689 39.718 C 344.2279 38.848 343.0229 38.535 341.9539 38.933 C 340.8859 39.33 340.1779 40.353 340.1839 41.497 L 340.3499 78.476 C 340.3669 82.433 339.4139 86.017 337.5149 89.131 C 336.7329 90.414 337.1399 92.088 338.4219 92.869 Z" fill="#c77481"/>
          </g>
        </g>
        <g id="Group_24">
          <title>Graphic_14</title>
          <g id="Graphic_25">
            <path d="M 446.2256 68.7548 C 446.7126 69.1478 447.3176 69.3528 447.9346 69.3508 C 448.1256 69.3498 448.3226 69.3288 448.5106 69.2858 L 468.6416 64.8188 C 471.5166 64.1948 473.9756 62.4898 475.5656 60.0118 C 477.1556 57.5378 477.6866 54.5928 477.0626 51.7198 C 476.6636 49.8858 475.8006 48.1788 474.5666 46.7788 C 473.5726 45.6518 471.8536 45.5468 470.7276 46.5388 C 469.6006 47.5318 469.4936 49.2498 470.4856 50.3788 C 471.1116 51.0818 471.5436 51.9458 471.7456 52.8768 C 472.0636 54.3278 471.7956 55.8198 470.9926 57.0728 C 470.1846 58.3248 468.9396 59.1878 467.4766 59.5068 L 450.6266 63.2458 L 450.4246 18.2868 C 450.4166 16.7858 449.1946 15.5738 447.6916 15.5808 C 446.1886 15.5878 444.9786 16.8108 444.9846 18.3108 L 445.2026 66.6428 C 445.2056 67.4648 445.5796 68.2418 446.2256 68.7548 Z" fill="#c77481"/>
          </g>
        </g>
        <g id="Group_22">
          <title>Graphic_15</title>
          <g id="Graphic_23">
            <path d="M 487.1489 139.0756 C 488.6499 139.0696 489.8619 137.8466 489.8569 136.3436 L 489.6369 88.0126 C 489.6309 86.5126 488.4069 85.2976 486.9079 85.3046 C 485.4049 85.3116 484.1909 86.5366 484.1989 88.0366 L 484.4169 136.3686 C 484.4219 137.8706 485.6459 139.0836 487.1489 139.0756 Z" fill="#c77481"/>
          </g>
        </g>
        <g id="Group_20">
          <title>Graphic_16</title>
          <g id="Graphic_21">
            <path d="M 522.7056 82.8944 C 524.1606 82.5804 525.6476 82.8494 526.9046 83.6544 C 528.1536 84.4564 529.0186 85.7014 529.3346 87.1574 C 529.6566 88.6244 531.1056 89.5564 532.5706 89.2344 C 534.0386 88.9164 534.9696 87.4674 534.6516 86.0004 C 533.3606 80.0674 527.4846 76.2904 521.5396 77.5824 L 504.8836 81.2714 C 503.6356 81.5454 502.7466 82.6584 502.7526 83.9404 L 502.9706 132.1664 C 502.9746 132.9884 503.3486 133.7654 503.9916 134.2794 C 504.4806 134.6714 505.0876 134.8784 505.7006 134.8764 C 505.8916 134.8744 506.0866 134.8534 506.2806 134.8104 L 532.3626 129.0264 C 533.8266 128.7024 534.7536 127.2494 534.4276 125.7834 C 534.1036 124.3154 532.6516 123.3924 531.1826 123.7174 L 508.3926 128.7694 L 508.3086 110.0854 L 526.5556 106.0394 C 528.0206 105.7154 528.9496 104.2634 528.6236 102.7964 C 528.2976 101.3314 526.8466 100.4044 525.3786 100.7304 L 508.2836 104.5194 L 508.2006 86.1074 Z" fill="#c77481"/>
          </g>
        </g>
        <g id="Group_18">
          <title>Graphic_17</title>
          <g id="Graphic_19">
            <path d="M 469.647 165.7465 C 472.476 163.1275 474.025 159.4125 474.006 155.2805 L 473.829 115.5665 C 473.821 114.0655 472.596 112.8535 471.096 112.8605 C 469.595 112.8665 468.381 114.0895 468.387 115.5915 L 468.464 132.3595 C 460.914 140.4465 452.087 143.6045 444.703 140.8095 C 438.35 138.4095 434.382 132.0985 434.349 124.3405 C 434.304 114.6135 440.352 104.7785 449.397 99.8705 C 456.219 96.1665 463.38 96.1735 469.042 99.8905 C 470.296 100.7135 471.983 100.3635 472.806 99.1075 C 473.63 97.8505 473.28 96.1645 472.025 95.3405 C 464.633 90.4905 455.445 90.3985 446.804 95.0875 C 436.046 100.9275 428.853 112.6915 428.906 124.3645 C 428.952 134.4275 434.269 142.6815 442.78 145.8975 C 445.219 146.8225 447.755 147.2675 450.338 147.2565 C 456.412 147.2285 462.717 144.6505 468.497 139.8085 L 468.566 155.3055 C 468.591 160.9115 464.365 163.9545 460.378 163.9715 C 459.098 163.9775 454.92 163.5895 454.897 158.3365 C 454.89 156.8355 453.666 155.6235 452.165 155.6305 C 450.662 155.6365 449.453 156.8605 449.459 158.3615 C 449.49 164.8965 453.986 169.4405 460.403 169.4115 C 463.779 169.3965 467.148 168.0615 469.647 165.7465 Z" fill="#c77481"/>
          </g>
        </g>
        <g id="Group_16">
          <title>Graphic_18</title>
          <g id="Graphic_17">
            <path d="M 411.1924 143.2353 C 406.1694 150.2853 398.5194 154.6833 391.2304 154.7153 C 387.8214 154.7313 384.6504 153.7613 382.0604 151.9173 C 378.0904 149.0873 375.7294 144.4363 375.4104 138.8243 C 375.0824 132.9853 376.9804 126.8483 380.7634 121.5463 C 385.7854 114.4983 393.4364 110.1003 400.7244 110.0673 C 404.1324 110.0513 407.3074 111.0193 409.8954 112.8673 C 413.8664 115.6953 416.2274 120.3473 416.5454 125.9573 C 416.8724 131.7953 414.9744 137.9313 411.1924 143.2353 M 413.0534 108.4383 C 409.5294 105.9233 405.2574 104.6073 400.7004 104.6273 C 391.6924 104.6683 382.3554 109.9403 376.3334 118.3873 C 371.8364 124.6953 369.5804 132.0633 369.9814 139.1323 C 370.3934 146.4233 373.5604 152.5383 378.9034 156.3483 C 382.4264 158.8593 386.6974 160.1753 391.2544 160.1533 C 400.2624 160.1133 409.5994 154.8413 415.6204 146.3943 C 420.1174 140.0863 422.3754 132.7163 421.9774 125.6503 C 421.5624 118.3553 418.3944 112.2443 413.0534 108.4383" fill="#c77481"/>
          </g>
        </g>
        <g id="Group_14">
          <title>Graphic_19</title>
          <g id="Graphic_15">
            <path d="M 352.564 156.2035 C 347.542 163.2515 339.89 167.6505 332.601 167.6825 C 329.192 167.6985 326.022 166.7295 323.432 164.8845 C 315.043 158.9035 314.459 145.2765 322.133 134.5135 C 327.156 127.4655 334.808 123.0675 342.097 123.0345 C 345.505 123.0185 348.676 123.9875 351.268 125.8345 C 355.238 128.6635 357.599 133.3135 357.916 138.9265 C 358.246 144.7615 356.345 150.8995 352.564 156.2035 M 354.424 121.4045 C 350.901 118.8915 346.627 117.5745 342.071 117.5945 C 333.063 117.6355 323.725 122.9065 317.705 131.3545 C 308.289 144.5595 309.442 161.5895 320.275 169.3155 C 323.797 171.8265 328.07 173.1425 332.627 173.1215 C 341.633 173.0805 350.972 167.8085 356.994 159.3615 C 361.489 153.0535 363.747 145.6835 363.349 138.6175 C 362.935 131.3225 359.768 125.2125 354.424 121.4045" fill="#c77481"/>
          </g>
        </g>
        <g id="Group_12">
          <title>Graphic_20</title>
          <g id="Graphic_13">
            <path d="M 287.0396 135.0893 C 290.5676 134.3103 293.4516 134.9043 295.1566 136.7663 C 296.7646 138.5243 297.2326 141.2943 296.3796 143.9933 C 295.1826 147.7723 291.8136 150.5333 287.1456 151.5633 L 277.4186 153.6633 L 277.3446 137.2023 L 287.0396 135.0893 M 299.4776 162.8143 C 300.7246 168.4503 296.9186 175.5763 287.4256 177.6773 L 277.5366 179.8103 L 277.4436 159.2233 L 287.8936 156.9653 C 287.9126 156.9633 287.9306 156.9613 287.9506 156.9573 C 295.1436 155.3673 298.6256 158.9403 299.4776 162.8143 M 267.0126 139.4533 L 271.9096 138.3853 L 271.9946 157.0503 L 271.9946 157.0653 L 272.1126 183.1883 C 272.1156 184.0093 272.4886 184.7823 273.1256 185.2963 C 273.6166 185.6893 274.2246 185.8983 274.8436 185.8963 C 275.0306 185.8953 275.2186 185.8753 275.4036 185.8343 L 288.5856 182.9933 C 301.5446 180.1283 306.6066 169.8513 304.7916 161.6393 C 303.9426 157.8063 301.3726 154.1703 297.2326 152.3523 C 299.2486 150.4973 300.7486 148.2173 301.5656 145.6343 C 303.0036 141.0863 302.0836 136.2803 299.1696 133.0943 C 297.3906 131.1513 293.2956 128.1343 285.8726 129.7773 L 265.8546 134.1373 C 261.9336 134.9943 258.8946 137.7643 257.7276 141.5483 C 256.5326 145.4123 257.5026 149.6143 260.2516 152.5253 C 261.2816 153.6163 263.0026 153.6653 264.0946 152.6343 C 265.1876 151.6013 265.2376 149.8803 264.2056 148.7883 C 262.8006 147.3033 262.3106 145.1423 262.9226 143.1533 C 263.5146 141.2393 265.0036 139.8923 267.0126 139.4533" fill="#c77481"/>
          </g>
        </g>
        <g id="Group_10">
          <title>Graphic_21</title>
          <g id="Graphic_11">
            <path d="M 438.5615 162.1156 C 438.2355 160.6496 436.7885 159.7236 435.3165 160.0456 L 274.3125 195.6576 C 272.8465 195.9836 271.9185 197.4376 272.2435 198.9016 C 272.5245 200.1766 273.6565 201.0396 274.9105 201.0346 C 275.0995 201.0326 275.2925 201.0136 275.4875 200.9706 L 436.4915 165.3586 C 437.9575 165.0326 438.8835 163.5836 438.5615 162.1156 Z" fill="#c77481"/>
          </g>
        </g>
        <g id="Group_8">
          <title>Graphic_22</title>
          <g id="Graphic_9">
            <path d="M 531.2539 138.8271 L 486.8599 148.6471 C 485.3939 148.9691 484.4659 150.4221 484.7919 151.8901 C 485.0749 153.1611 486.2049 154.0261 487.4559 154.0201 C 487.6459 154.0201 487.8389 153.9991 488.0339 153.9581 L 532.4279 144.1361 C 533.8959 143.8141 534.8189 142.3611 534.4959 140.8941 C 534.1709 139.4271 532.7229 138.5011 531.2539 138.8271 Z" fill="#c77481"/>
          </g>
        </g>
        <g id="Group_6">
          <title>Graphic_23</title>
          <g id="Graphic_7">
            <path d="M 403.3223 76.184 C 405.7633 77.109 408.3013 77.555 410.8813 77.543 C 416.9573 77.514 423.2593 74.936 429.0403 70.095 L 429.1093 85.593 C 429.1353 91.198 424.9093 94.242 420.9203 94.26 C 419.6383 94.266 415.4633 93.876 415.4393 88.623 C 415.4323 87.123 414.2093 85.911 412.7083 85.917 C 411.2053 85.924 409.9933 87.148 410.0003 88.648 C 410.0303 95.185 414.5293 99.727 420.9443 99.699 C 424.3193 99.684 427.6873 98.35 430.1883 96.036 C 433.0213 93.416 434.5663 89.698 434.5483 85.569 L 434.3683 45.855 C 434.3633 44.354 433.1393 43.142 431.6383 43.148 C 430.1383 43.156 428.9243 44.378 428.9303 45.879 L 429.0063 62.646 C 421.4533 70.732 412.6283 73.891 405.2443 71.099 C 398.8933 68.695 394.9223 62.385 394.8873 54.629 C 394.8443 44.902 400.8913 35.065 409.9423 30.158 C 416.7603 26.455 423.9223 26.46 429.5833 30.176 C 430.8383 30.999 432.5233 30.651 433.3493 29.394 C 434.1723 28.139 433.8243 26.454 432.5693 25.628 C 425.1773 20.78 415.9823 20.687 407.3443 25.374 C 396.5893 31.215 389.3973 42.978 389.4493 54.653 C 389.4953 64.716 394.8103 72.967 403.3223 76.184 Z" fill="#c77481"/>
          </g>
        </g>
        <g id="Group_4">
          <title>Graphic_24</title>
          <g id="Graphic_5">
            <path d="M 265.1401 124.4921 C 271.8601 124.4621 278.7851 119.1671 278.7451 110.3601 L 278.5001 56.0671 C 278.4941 54.8181 277.6381 53.7351 276.4241 53.4371 C 275.2151 53.1441 273.9501 53.7121 273.3721 54.8181 C 272.0421 57.3611 270.4201 57.7771 265.1021 56.9501 C 258.6061 55.9391 254.2531 60.6101 254.0731 60.8081 C 253.0591 61.9171 253.1361 63.6391 254.2451 64.6511 C 255.3541 65.6671 257.0751 65.5881 258.0891 64.4791 C 258.1131 64.4531 260.6771 61.7671 264.2631 62.3251 C 266.7931 62.7171 270.1011 63.2351 273.0891 62.1041 L 273.3081 110.3841 C 273.3331 115.9891 269.1061 119.0331 265.1151 119.0511 C 263.8351 119.0561 259.6601 118.6671 259.6361 113.4171 C 259.6291 111.9131 258.4071 110.7031 256.9081 110.7101 C 255.4041 110.7171 254.1901 111.9381 254.1971 113.4421 C 254.2271 119.9761 258.7281 124.5211 265.1401 124.4921 Z" fill="#c77481"/>
          </g>
        </g>
      </g>
    </g>
  </g>
</svg>
